<mxfile host="app.diagrams.net" modified="2023-06-20T06:19:49.736Z" agent="Mozilla/5.0 (Macintosh; Intel Mac OS X 10_15_7) AppleWebKit/605.1.15 (KHTML, like Gecko) Version/16.5 Safari/605.1.15" version="21.5.0" etag="z-ZETrOlN0SyZoXmtVvt" type="github">
  <diagram name="Page-1" id="Ft9hrQ_03YzLnNeLeEgA">
    <mxGraphModel>
      <root>
        <mxCell id="0" />
        <mxCell id="1" parent="0" />
      </root>
    </mxGraphModel>
  </diagram>
</mxfile>
